<svg width="480" height="232" viewBox="0 0 480 232" fill="none" xmlns="http://www.w3.org/2000/svg">
<path d="M299.405 74.6235L299.416 50.1235L310.756 50.1326C312.366 50.1339 313.766 50.4501 314.956 51.081C316.145 51.6886 317.078 52.5411 317.755 53.6383C318.431 54.7355 318.769 56.0074 318.768 57.4541C318.767 58.9008 318.428 60.1722 317.751 61.2683C317.074 62.3644 316.129 63.227 314.915 63.856C313.725 64.4617 312.336 64.7639 310.75 64.7626L303.085 64.7565L303.08 74.6265L299.405 74.6235ZM303.086 61.6415L310.366 61.6473C311.813 61.6485 312.956 61.2761 313.797 60.5301C314.66 59.7608 315.092 58.7461 315.093 57.4861C315.093 56.2261 314.662 55.2225 313.799 54.4751C312.96 53.7278 311.816 53.3535 310.37 53.3523L303.09 53.3465L303.086 61.6415ZM334.235 75.0365C332.461 75.0351 330.805 74.7188 329.265 74.0875C327.725 73.433 326.361 72.5335 325.171 71.3892C324.005 70.2216 323.096 68.8792 322.443 67.3621C321.814 65.8215 321.5 64.1646 321.5 62.3913C321.501 60.618 321.817 58.9732 322.448 57.4571C323.102 55.9176 324.012 54.5766 325.179 53.4342C326.37 52.2685 327.735 51.3713 329.276 50.7425C330.816 50.0904 332.473 49.7651 334.246 49.7665C336.019 49.768 337.676 50.096 339.216 50.7505C340.779 51.3818 342.143 52.2812 343.309 53.4488C344.476 54.5931 345.385 55.9355 346.038 57.476C346.69 58.9932 347.016 60.6385 347.015 62.4118C347.015 64.1851 346.687 65.8415 346.033 67.381C345.379 68.8972 344.468 70.2381 343.301 71.4038C342.134 72.5462 340.769 73.4435 339.205 74.0955C337.665 74.7243 336.008 75.038 334.235 75.0365ZM334.271 71.6416C335.531 71.6426 336.698 71.4102 337.771 70.9444C338.868 70.4786 339.825 69.8377 340.642 69.0217C341.459 68.1823 342.101 67.2029 342.569 66.0832C343.036 64.9403 343.27 63.7155 343.27 62.4088C343.271 61.0788 343.038 59.8536 342.572 58.7332C342.106 57.6129 341.465 56.644 340.648 55.8267C339.832 54.986 338.876 54.3319 337.779 53.8644C336.706 53.3969 335.539 53.1626 334.279 53.1616C332.996 53.1605 331.806 53.3929 330.709 53.8587C329.612 54.3245 328.655 54.977 327.838 55.8164C327.021 56.6324 326.379 57.6002 325.912 58.7198C325.468 59.8395 325.246 61.0643 325.245 62.3943C325.245 63.701 325.466 64.9261 325.909 66.0698C326.375 67.1902 327.016 68.1707 327.832 69.0114C328.649 69.8287 329.605 70.4711 330.701 70.9387C331.798 71.4062 332.988 71.6405 334.271 71.6416ZM354.556 71.3779L359.596 71.3819C360.88 71.383 362.07 71.1623 363.167 70.7198C364.263 70.254 365.22 69.6248 366.037 68.8321C366.878 68.0161 367.52 67.0716 367.964 65.9987C368.431 64.9024 368.665 63.7126 368.665 62.4292C368.666 61.1692 368.433 59.9907 367.967 58.8937C367.524 57.7966 366.883 56.8511 366.043 56.0571C365.227 55.2398 364.27 54.609 363.174 54.1648C362.078 53.6973 360.888 53.463 359.604 53.4619L354.564 53.4579L354.556 71.3779ZM350.88 74.6649L350.891 50.1649L359.536 50.1719C361.379 50.1734 363.082 50.4897 364.645 51.121C366.208 51.7289 367.573 52.5817 368.739 53.6793C369.905 54.7769 370.815 56.0726 371.467 57.5665C372.12 59.0603 372.446 60.6823 372.445 62.4323C372.444 64.2056 372.117 65.8387 371.463 67.3315C370.832 68.801 369.933 70.0836 368.766 71.1793C367.599 72.275 366.222 73.1373 364.635 73.766C363.072 74.3714 361.368 74.6734 359.525 74.6719L350.88 74.6649ZM376.309 74.6854L376.32 50.1854L379.995 50.1883L379.984 74.6883L376.309 74.6854ZM396.681 75.0868C394.908 75.0853 393.251 74.769 391.711 74.1378C390.172 73.4832 388.807 72.5838 387.618 71.4395C386.451 70.2719 385.542 68.9295 384.889 67.4123C384.26 65.8718 383.946 64.2148 383.947 62.4415C383.947 60.6682 384.263 59.0234 384.894 57.5073C385.548 55.9678 386.458 54.6269 387.626 53.4845C388.816 52.3188 390.182 51.4215 391.722 50.7928C393.262 50.1407 394.919 49.8153 396.692 49.8168C398.466 49.8182 400.122 50.1462 401.662 50.8008C403.225 51.432 404.589 52.3314 405.756 53.4991C406.922 54.6433 407.831 55.9857 408.484 57.5262C409.136 59.0434 409.462 60.6887 409.462 62.462C409.461 64.2354 409.133 65.8918 408.479 67.4312C407.825 68.9474 406.915 70.2883 405.748 71.4541C404.58 72.5964 403.215 73.4937 401.651 74.1458C400.111 74.7745 398.454 75.0882 396.681 75.0868ZM396.717 71.6918C397.977 71.6928 399.144 71.4604 400.218 70.9946C401.315 70.5288 402.272 69.8879 403.089 69.0719C403.906 68.2326 404.548 67.2531 405.015 66.1335C405.482 64.9905 405.716 63.7657 405.717 62.459C405.717 61.129 405.484 59.9038 405.018 58.7835C404.552 57.6631 403.911 56.6942 403.095 55.8769C402.278 55.0363 401.322 54.3822 400.225 53.9146C399.152 53.4471 397.986 53.2128 396.726 53.2118C395.442 53.2108 394.252 53.4431 393.155 53.9089C392.059 54.3747 391.102 55.0273 390.285 55.8666C389.468 56.6826 388.825 57.6504 388.358 58.7701C387.914 59.8897 387.692 61.1145 387.692 62.4445C387.691 63.7512 387.912 64.9764 388.355 66.1201C388.821 67.2404 389.462 68.221 390.279 69.0616C391.095 69.8789 392.051 70.5214 393.148 70.9889C394.244 71.4565 395.434 71.6908 396.717 71.6918Z" fill="black"/>
<rect y="52.155" width="134.759" height="179.845" fill="#049443"/>
<rect x="269.519" y="122.295" width="156.321" height="109.705" fill="#332482"/>
<rect x="141.497" width="122.631" height="232" fill="#FACB05"/>
</svg>
