<svg width="357" height="129" viewBox="0 0 357 129" fill="none" xmlns="http://www.w3.org/2000/svg">
<path d="M208.117 57.0236L208.132 32.5236L219.472 32.5304C221.082 32.5314 222.482 32.8472 223.671 33.4779C224.861 34.0853 225.794 34.9375 226.47 36.0346C227.146 37.1317 227.483 38.4036 227.482 39.8502C227.481 41.2969 227.142 42.5684 226.465 43.6646C225.788 44.7609 224.842 45.6236 223.628 46.2529C222.438 46.8589 221.05 47.1614 219.463 47.1604L211.798 47.1558L211.792 57.0258L208.117 57.0236ZM211.8 44.0408L219.08 44.0452C220.526 44.046 221.67 43.6734 222.51 42.9272C223.374 42.1578 223.807 41.143 223.807 39.883C223.808 38.623 223.377 37.6194 222.514 36.8722C221.675 36.1251 220.531 35.751 219.085 35.7502L211.805 35.7458L211.8 44.0408ZM242.946 57.4295C241.173 57.4285 239.517 57.1125 237.977 56.4816C236.437 55.8273 235.073 54.9281 233.884 53.7841C232.718 52.6167 231.808 51.2745 231.156 49.7574C230.527 48.2171 230.213 46.5602 230.214 44.7869C230.215 43.0135 230.531 41.3687 231.162 39.8524C231.816 38.3128 232.727 36.9717 233.894 35.8291C235.085 34.6631 236.451 33.7656 237.991 33.1366C239.531 32.4842 241.188 32.1585 242.962 32.1596C244.735 32.1606 246.391 32.4883 247.931 33.1425C249.494 33.7735 250.858 34.6726 252.024 35.84C253.19 36.9841 254.1 38.3263 254.752 39.8667C255.404 41.3837 255.73 43.0289 255.729 44.8022C255.728 46.5756 255.4 48.2321 254.746 49.7717C254.092 51.2879 253.181 52.629 252.014 53.795C250.846 54.9376 249.481 55.8352 247.917 56.4875C246.377 57.1166 244.72 57.4306 242.946 57.4295ZM242.983 54.0346C244.243 54.0353 245.41 53.8027 246.484 53.3367C247.581 52.8707 248.538 52.2296 249.355 51.4134C250.172 50.5739 250.814 49.5943 251.282 48.4746C251.749 47.3315 251.983 46.1067 251.984 44.8C251.985 43.47 251.752 42.2449 251.286 41.1246C250.82 40.0043 250.179 39.0356 249.363 38.2184C248.547 37.3779 247.591 36.724 246.494 36.2567C245.421 35.7894 244.255 35.5553 242.995 35.5546C241.711 35.5538 240.521 35.7864 239.424 36.2524C238.327 36.7184 237.37 37.3712 236.553 38.2107C235.736 39.0269 235.094 39.9948 234.626 41.1145C234.182 42.2343 233.96 43.4591 233.959 44.7891C233.958 46.0958 234.179 47.3209 234.622 48.4645C235.088 49.5848 235.729 50.5652 236.545 51.4057C237.361 52.2228 238.317 52.8651 239.414 53.3324C240.51 53.7997 241.7 54.0338 242.983 54.0346ZM263.269 53.7668L268.309 53.7698C269.592 53.7706 270.782 53.5497 271.879 53.107C272.976 52.641 273.933 52.0116 274.75 51.2187C275.591 50.4026 276.233 49.4579 276.677 48.3849C277.144 47.2885 277.378 46.0986 277.379 44.8153C277.38 43.5553 277.147 42.3768 276.681 41.2799C276.238 40.1829 275.597 39.2376 274.758 38.4437C273.942 37.6266 272.985 36.996 271.889 36.552C270.793 36.0847 269.603 35.8506 268.319 35.8498L263.279 35.8468L263.269 53.7668ZM259.592 57.0546L259.606 32.5546L268.251 32.5598C270.095 32.5609 271.798 32.8769 273.361 33.5079C274.924 34.1155 276.288 34.968 277.454 36.0653C278.62 37.1627 279.529 38.4583 280.182 39.952C280.834 41.4457 281.16 43.0676 281.159 44.8176C281.158 46.5909 280.83 48.224 280.176 49.717C279.545 51.1866 278.646 52.4694 277.479 53.5654C276.311 54.6613 274.934 55.5238 273.347 56.1529C271.783 56.7586 270.08 57.0609 268.237 57.0598L259.592 57.0546ZM285.021 57.0699L285.036 32.5699L288.711 32.5721L288.696 57.0721L285.021 57.0699ZM305.393 57.4672C303.619 57.4661 301.963 57.1501 300.423 56.5192C298.884 55.8649 297.519 54.9658 296.33 53.8217C295.164 52.6544 294.255 51.3121 293.602 49.7951C292.973 48.2547 292.659 46.5978 292.66 44.8245C292.661 43.0512 292.977 41.4064 293.608 39.8901C294.263 38.3505 295.173 37.0094 296.341 35.8667C297.531 34.7008 298.897 33.8033 300.437 33.1742C301.978 32.5218 303.635 32.1961 305.408 32.1972C307.181 32.1983 308.838 32.5259 310.377 33.1802C311.94 33.8111 313.305 34.7103 314.471 35.8776C315.637 37.0217 316.546 38.3639 317.198 39.9043C317.851 41.4214 318.176 43.0666 318.175 44.8399C318.174 46.6132 317.847 48.2697 317.192 49.8093C316.538 51.3256 315.627 52.6667 314.46 53.8326C313.293 54.9753 311.927 55.8728 310.363 56.5252C308.823 57.1543 307.166 57.4683 305.393 57.4672ZM305.43 54.0722C306.69 54.073 307.857 53.8403 308.93 53.3743C310.027 52.9083 310.984 52.2672 311.801 51.451C312.618 50.6115 313.261 49.6319 313.728 48.5122C314.195 47.3692 314.43 46.1443 314.43 44.8376C314.431 43.5076 314.199 42.2825 313.733 41.1622C313.267 40.0419 312.625 39.0732 311.809 38.256C310.993 37.4156 310.037 36.7616 308.94 36.2943C307.867 35.827 306.701 35.593 305.441 35.5922C304.158 35.5914 302.967 35.824 301.87 36.2901C300.773 36.7561 299.816 37.4088 298.999 38.2483C298.182 39.0645 297.54 40.0324 297.073 41.1522C296.629 42.2719 296.406 43.4968 296.405 44.8268C296.405 46.1334 296.625 47.3586 297.068 48.5022C297.534 49.6224 298.175 50.6028 298.991 51.4433C299.807 52.2605 300.764 52.9027 301.86 53.3701C302.957 53.8374 304.146 54.0714 305.43 54.0722Z" fill="black"/>
<rect y="29" width="100" height="100" fill="#049443"/>
<rect x="200" y="68" width="116" height="61" fill="#332482"/>
<rect x="105" width="91" height="129" fill="#FACB05"/>
</svg>
